<svg width="26" height="26" viewBox="0 0 26 26" fill="none" xmlns="http://www.w3.org/2000/svg">
<circle cx="13" cy="13" r="12.5" fill="#FBF4EC" stroke="black"/>
<path d="M12.6439 20.34C12.2972 20.34 11.9972 20.22 11.7439 19.98C11.5039 19.7267 11.3839 19.4267 11.3839 19.08C11.3839 18.7333 11.5039 18.44 11.7439 18.2C11.9972 17.9467 12.2972 17.82 12.6439 17.82C12.9906 17.82 13.2839 17.9467 13.5239 18.2C13.7639 18.44 13.8839 18.7333 13.8839 19.08C13.8839 19.4267 13.7639 19.7267 13.5239 19.98C13.2839 20.22 12.9906 20.34 12.6439 20.34ZM9.76391 9.94C9.76391 10.2867 9.93724 10.5733 10.2839 10.8C10.2706 10.7467 10.2639 10.68 10.2639 10.6C10.2639 10.4133 10.3306 10.26 10.4639 10.14C10.6106 10.0067 10.7906 9.94 11.0039 9.94C11.5906 9.94 11.8839 10.2333 11.8839 10.82C11.8839 11.2067 11.7306 11.5333 11.4239 11.8C11.1172 12.0533 10.7372 12.18 10.2839 12.18C9.69724 12.18 9.21057 11.9867 8.82391 11.6C8.45057 11.2 8.26391 10.6933 8.26391 10.08C8.26391 8.96 8.73724 8.04 9.68391 7.32C10.6439 6.58667 11.8706 6.22 13.3639 6.22C14.8439 6.22 16.0306 6.56667 16.9239 7.26C17.8306 7.95333 18.2839 8.86667 18.2839 10C18.2839 11.4267 17.5772 12.5 16.1639 13.22C15.9239 13.34 15.6172 13.48 15.2439 13.64C14.4572 13.9733 13.9172 14.2933 13.6239 14.6C13.3439 14.9067 13.2039 15.3133 13.2039 15.82C13.2039 16.1933 13.1706 16.4467 13.1039 16.58C12.9972 16.78 12.7839 16.88 12.4639 16.88C11.9039 16.88 11.6239 16.5333 11.6239 15.84C11.6239 15.2 11.7839 14.6533 12.1039 14.2C12.5039 13.6533 13.2372 13.0867 14.3039 12.5C15.2639 11.98 15.8839 11.56 16.1639 11.24C16.4439 10.92 16.5839 10.4867 16.5839 9.94C16.5839 9.20667 16.2839 8.62 15.6839 8.18C15.0839 7.72667 14.2906 7.5 13.3039 7.5C12.3039 7.5 11.4639 7.74 10.7839 8.22C10.1039 8.68667 9.76391 9.26 9.76391 9.94Z" fill="black"/>
</svg>
